<?xml version="1.0" standalone="no"?>
<!DOCTYPE svg PUBLIC "-//W3C//DTD SVG 20010904//EN"
 "http://www.w3.org/TR/2001/REC-SVG-20010904/DTD/svg10.dtd">
<svg version="1.0" xmlns="http://www.w3.org/2000/svg"
 width="100.000000pt" height="100.000000pt" viewBox="0 0 100.000000 100.000000"
 preserveAspectRatio="xMidYMid meet">
<metadata>
Created by potrace 1.11, written by Peter Selinger 2001-2013
</metadata>
<g transform="translate(0.000000,100.000000) scale(0.100000,-0.100000)"
fill="#000000" stroke="none">
<path d="M265 890 c-10 -11 -15 -37 -15 -78 l0 -62 -34 0 c-45 0 -70 -31 -54
-66 6 -13 21 -25 32 -26 12 0 28 -1 36 -2 8 -1 16 -10 18 -20 3 -15 0 -18 -16
-14 -37 10 -62 -18 -62 -69 0 -35 -3 -44 -14 -40 -30 12 -46 -26 -46 -109 0
-83 9 -104 42 -104 14 0 18 -8 18 -33 0 -43 17 -58 105 -92 39 -15 102 -40
141 -56 39 -15 82 -26 95 -24 39 8 283 107 302 123 10 9 17 29 17 49 0 25 4
33 18 33 33 0 42 21 42 105 0 65 -4 85 -17 98 -10 8 -22 15 -28 14 -5 -1 -11
17 -13 40 -3 48 -30 74 -64 65 -15 -4 -19 -1 -17 13 3 12 15 19 38 22 38 4 51
16 51 48 0 30 -19 45 -57 45 l-33 0 0 64 c0 47 -4 67 -17 77 -12 11 -65 14
-234 15 -193 1 -220 -1 -234 -16z m443 -19 c6 -1 12 -14 12 -29 l0 -29 -215 0
c-119 0 -218 4 -221 9 -3 5 -3 19 0 31 5 22 7 22 208 20 112 0 209 -1 216 -2z
m102 -166 c0 -13 -41 -15 -310 -15 -171 0 -310 4 -310 8 0 5 3 12 7 15 3 4
143 7 310 7 263 0 303 -2 303 -15z m-90 -75 c0 -19 -7 -28 -28 -36 -25 -10
-31 -8 -50 12 -32 37 -87 11 -77 -35 5 -22 1 -28 -25 -38 -31 -12 -36 -11 -82
1 -23 7 -26 12 -23 37 6 51 -61 74 -85 29 -8 -16 -14 -17 -40 -7 -20 8 -30 18
-30 33 0 11 2 23 4 25 3 2 102 4 220 4 l216 0 0 -25z m-395 -77 l95 -37 0
-182 0 -182 -107 43 c-101 40 -108 45 -108 71 -1 22 7 33 30 45 16 8 38 32 49
53 16 33 17 41 4 74 -8 21 -29 47 -48 60 -24 16 -35 32 -36 50 -3 52 -2 53
121 5z m472 -1 c2 -28 -1 -34 -31 -46 -41 -17 -58 -46 -60 -97 -1 -50 21 -86
60 -101 26 -9 31 -16 30 -39 -1 -16 -4 -30 -7 -32 -2 -2 -50 -22 -106 -44
l-103 -40 0 181 0 182 93 36 c50 21 99 36 107 35 9 -1 16 -15 17 -35z m-320
-64 c4 -7 7 -56 8 -108 0 -79 3 -95 16 -98 14 -2 16 10 16 91 0 51 2 101 6
110 17 45 24 2 24 -162 0 -175 0 -179 -22 -189 -16 -7 -29 -7 -46 2 -24 12
-24 12 -25 189 0 166 4 195 23 165z m-222 -51 c24 -58 -17 -113 -81 -105 -29
3 -29 4 -32 75 -3 68 -2 72 20 75 40 6 79 -13 93 -45z m605 -33 l0 -74 -37 0
c-46 0 -57 7 -77 44 -11 21 -12 35 -4 57 11 33 19 40 62 49 51 11 56 5 56 -76z"/>
</g>
</svg>
